<?xml version="1.0" standalone="no"?>
<!DOCTYPE svg PUBLIC "-//W3C//DTD SVG 20010904//EN"
 "http://www.w3.org/TR/2001/REC-SVG-20010904/DTD/svg10.dtd">
<svg version="1.0" xmlns="http://www.w3.org/2000/svg"
 width="512.000000pt" height="512.000000pt" viewBox="0 0 512.000000 512.000000"
 preserveAspectRatio="xMidYMid meet">

<g transform="translate(0.000000,512.000000) scale(0.100000,-0.100000)"
fill="#000000" stroke="none">
<path d="M0 4876 c0 -3 424 -560 943 -1238 519 -678 953 -1247 966 -1265 l24
-31 -907 -1037 c-499 -570 -910 -1043 -913 -1051 -4 -12 48 -14 383 -14 l389
0 709 810 c390 446 712 807 715 802 3 -4 282 -369 620 -810 l614 -802 789 0
c439 0 788 4 786 9 -1 4 -453 603 -1003 1330 -550 727 -1001 1325 -1003 1330
-2 5 380 446 848 981 467 536 850 977 850 982 0 4 -174 8 -388 8 l-388 0 -644
-739 c-355 -407 -647 -740 -650 -740 -3 0 -256 333 -563 739 l-559 740 -809 0
c-445 0 -809 -2 -809 -4z m2782 -2299 c769 -1017 1398 -1850 1398 -1853 0 -2
-96 -4 -212 -4 l-213 0 -1410 1844 c-775 1015 -1411 1849 -1413 1855 -3 8 61
11 224 9 l228 -3 1398 -1848z"/>
</g>
</svg>
